<svg xmlns="http://www.w3.org/2000/svg" width="96.909" height="96.909" viewBox="0 0 96.909 96.909"><defs><style>.a{fill:none;}.b{fill:#4784a4;}</style></defs><path class="a" d="M0,0H96.909V96.909H0Z"/><path class="b" d="M80.149,13.847a3.973,3.973,0,0,1,0,5.653L34.36,65.29a3.973,3.973,0,0,1-5.653,0L11.747,48.331A4,4,0,1,1,17.4,42.678L31.533,56.81,74.5,13.847A3.973,3.973,0,0,1,80.149,13.847Zm-8.52-8.56-40.1,40.1L20.267,34.118a8.091,8.091,0,0,0-11.427,0L3.187,39.771a8.091,8.091,0,0,0,0,11.427L25.8,73.81a8.091,8.091,0,0,0,11.427,0L88.709,22.367a8.091,8.091,0,0,0,0-11.427L83.056,5.287a8.091,8.091,0,0,0-11.427,0Z" transform="translate(2.506 8.886)"/></svg>