<svg xmlns="http://www.w3.org/2000/svg" width="53" height="111.944" viewBox="0 0 53 111.944"><defs><style>.a{fill:#f5f5f5;}</style></defs><g transform="translate(0 0)"><g transform="translate(0 0)"><path class="a" d="M66.3,107.646s-6.368,6.126-15.945-2.426c0,0,12.039,4.913,18.8-7.6A12.87,12.87,0,0,1,66.3,107.646Z" transform="translate(-19.812 -38.413)"/><path class="a" d="M11.649,50.906s12-12.537,31.83,3.785c0,0-24.339-8.916-36.536,16.3a25.219,25.219,0,0,1,4.707-20.082Z" transform="translate(-2.551 -18.221)"/><path class="a" d="M22.775,133.149s17.395-23.393-3.809-45.027c0,0-17.589-19.651-9.886-34.232,0,0-20.8,20.069.57,43.705C9.65,97.626,26.486,116.9,22.775,133.149Z" transform="translate(0 -21.205)"/><path class="a" d="M52.07,52.23a34.141,34.141,0,0,1,8.285,7.745,35.462,35.462,0,0,1,3.639,5.889,33.965,33.965,0,0,1,3.8,11.311,30.21,30.21,0,0,1-.782,11.863A18.117,18.117,0,0,0,73.45,76.751a17.819,17.819,0,0,0-3.087-11.269A36.84,36.84,0,0,0,65.08,59.7,37.489,37.489,0,0,0,52.07,52.23Z" transform="translate(-20.489 -20.552)"/><path class="a" d="M59.356,9.171a11.754,11.754,0,1,1-5.192-7.355,11.76,11.76,0,0,1,5.192,7.355Z" transform="translate(-14.214 0)"/></g></g></svg>