<svg xmlns="http://www.w3.org/2000/svg" width="285" height="210.573" viewBox="0 0 285 210.573"><defs><style>.a{fill:#403449;}</style></defs><g transform="translate(-12)"><g transform="translate(12)"><path class="a" d="M55.23,117.79H65.659c4.673,0,8.144.7,10.4,2.139a7.456,7.456,0,0,1,3.384,6.811,10.626,10.626,0,0,1-.088,1.36,9.051,9.051,0,0,1-.454,1.745,7.148,7.148,0,0,1-.967,1.919,7.939,7.939,0,0,1-1.8,1.758,9.975,9.975,0,0,1-2.8,1.377A8.906,8.906,0,0,1,78.9,138a9.14,9.14,0,0,1,1.89,5.859,9.448,9.448,0,0,1-3.237,7.661q-3.222,2.7-9.623,2.7H55.23Zm4.262,15.644h7.792a10.253,10.253,0,0,0,5.757-1.333,5.317,5.317,0,0,0,1.948-4.717,4.922,4.922,0,0,0-2.329-4.717,15.409,15.409,0,0,0-7.221-1.289H59.492Zm0,3.413v13.827h7.6a11.586,11.586,0,0,0,6.928-1.714,6.2,6.2,0,0,0,2.314-5.317,5.625,5.625,0,0,0-2.5-5.273,15.38,15.38,0,0,0-7.778-1.465Z" transform="translate(25.668 54.744)"/><path class="a" d="M110.929,154.295h-4.907L101,142.884c-1.362-3.061-2.226-4.907-2.607-5.537q-1.8.132-4.262.132l-6.5-.205v17.02H83.23V117.5H94.948c1.333,0,2.534,0,3.559.1a27.339,27.339,0,0,1,3.091.352,12.961,12.961,0,0,1,2.666.718,9.638,9.638,0,0,1,2.109,1.186,5.976,5.976,0,0,1,1.6,1.728,8.569,8.569,0,0,1,.937,2.4,12.743,12.743,0,0,1,.352,3.135,9.77,9.77,0,0,1-1.816,5.932,9.316,9.316,0,0,1-5.127,3.442s.176.322.5.879l1.172,2.051c.439.82.791,1.465,1.04,2.036Zm-23.3-32.986v12.3h9.038c3.135,0,5.317-.527,6.547-1.567a6.137,6.137,0,0,0,1.846-4.951,5.361,5.361,0,0,0-1.772-4.394,9.316,9.316,0,0,0-5.859-1.465Z" transform="translate(38.682 54.609)"/><path class="a" d="M137.742,154.183l-4.248-11.528H118.979l-4.394,11.528H110.19l13.974-36.443h4.394l13.578,36.443Zm-5.625-15.1q-5.185-15.072-5.742-16.947L120.4,139.081Z" transform="translate(51.211 54.72)"/><path class="a" d="M170.548,154.16h-4.819l-18.9-28.621-1.23-1.7q.205,5.156.19,9.228V154.16H141.81V117.79h4.746l18.969,28.621,1.26,1.7q-.176-7.851-.176-9.067V117.79h3.97Z" transform="translate(65.907 54.744)"/><path class="a" d="M204.06,135.939q0,8.876-5.039,13.549t-14.076,4.673h-10.8v-36.37h10.034a28.343,28.343,0,0,1,8.144,1.069,17.578,17.578,0,0,1,6.24,3.237,14.077,14.077,0,0,1,4.043,5.683A21.824,21.824,0,0,1,204.06,135.939Zm-4.555.117q0-7.617-3.926-11.088c-2.637-2.314-6.445-3.471-11.469-3.471H178.4v28.958h6.43c4.79,0,8.422-1.216,10.927-3.633S199.5,140.817,199.5,136.057Z" transform="translate(80.937 54.743)"/><path class="a" d="M122.131,34.407h22.6V0H0V144.732H144.732V97.846h-22.6Z"/><rect class="a" width="40.852" height="63.439" transform="translate(157.842 34.407)"/><path class="a" d="M0,109v50.915H50.915V109Zm38.084,38.01H12.9l25.179-25.15Z" transform="translate(0 50.658)"/></g></g></svg>