<svg xmlns="http://www.w3.org/2000/svg" width="191" height="230.149" viewBox="0 0 191 230.149"><defs><style>.a{fill:#ce5959;}</style></defs><path class="a" d="M8.078,160.825H.16V159.14H17.875v1.685H9.931v21.9H8.078Z" transform="translate(0.047 47.087)"/><path class="a" d="M30.38,171.139H18.354V181H31.533l-.272,1.685H16.54V159.1H30.989v1.685H18.354V169.4H30.38Z" transform="translate(4.894 47.075)"/><path class="a" d="M49.711,176.5a8.618,8.618,0,0,1-8.864,6.57c-6.777,0-10.367-5.391-10.367-12.039,0-6.363,3.5-12.155,10.367-12.155,5.08,0,8.086,2.825,8.851,6.764H47.884a6.829,6.829,0,0,0-7.14-5.08c-5.87,0-8.32,5.352-8.32,10.445s2.423,10.367,8.449,10.367a6.92,6.92,0,0,0,6.972-4.885Z" transform="translate(9.018 47.01)"/><path class="a" d="M49.24,182.725V159.14h2.7c3.68,5.663,12.3,18.829,13.788,21.395h0c-.194-3.408-.168-6.881-.168-10.717V159.14h1.853v23.585H64.946c-3.5-5.456-12.259-19.179-13.944-21.771h0c.168,3.1.13,6.544.13,10.821v10.95Z" transform="translate(14.569 47.087)"/><path class="a" d="M88.517,170.841c0,6.479-3.434,12.3-10.717,12.3-6.635,0-10.51-5.365-10.51-12.129s3.732-12.129,10.743-12.129C84.5,158.88,88.517,163.96,88.517,170.841Zm-19.27,0c0,5.43,2.993,10.548,8.656,10.548,6.091,0,8.656-4.989,8.656-10.587s-2.9-10.3-8.592-10.3c-6.065.065-8.721,5.08-8.721,10.406Z" transform="translate(19.91 47.01)"/><path class="a" d="M87.67,159.14H89.5v21.849h12.661l-.337,1.685H87.67Z" transform="translate(25.94 47.087)"/><path class="a" d="M121.247,170.841c0,6.479-3.434,12.3-10.717,12.3-6.635,0-10.51-5.365-10.51-12.129s3.745-12.129,10.756-12.129C117.242,158.88,121.247,163.96,121.247,170.841Zm-19.27,0c0,5.43,2.993,10.548,8.656,10.548,6.1,0,8.656-4.989,8.656-10.587s-2.89-10.3-8.592-10.3c-6.065.065-8.721,5.08-8.721,10.406Z" transform="translate(29.594 47.01)"/><path class="a" d="M138.93,182.8h-1.516a17.184,17.184,0,0,1-.246-3.771c-.842,1.607-2.7,4.043-7.607,4.043-6.777,0-10.25-5.184-10.25-11.87,0-7.037,3.706-12.324,10.613-12.324,5.093,0,8.462,2.657,9.2,7.011H137.31c-1.011-3.343-3.343-5.326-7.451-5.326-5.9,0-8.592,4.574-8.592,10.548,0,5.391,2.592,10.276,8.358,10.276s7.542-3.888,7.542-9.071v-.324H129.56V170.31h9.369Z" transform="translate(35.302 47.01)"/><path class="a" d="M140.977,159.14v23.585H139.15V159.14Z" transform="translate(41.172 47.087)"/><path class="a" d="M21.99,0,55.916,33.926h94.651v94.638l33.926,33.926V0Z" transform="translate(6.506)"/><path class="a" d="M0,26.18V183.254H157.074V120.818l-94.6-94.6Zm127.152,134.1H24.855V54.638h7.231v98.487h95.066Z" transform="translate(0 7.746)"/></svg>