<svg xmlns="http://www.w3.org/2000/svg" width="245" height="257.822" viewBox="0 0 245 257.822"><defs><style>.a,.b{fill:#fb9d9d;}.b{font-size:35px;font-family:ArialRoundedMTBold, Arial Rounded MT;}.c{letter-spacing:-0.01em;}</style></defs><path class="a" d="M178.679,0H59.555L0,103.156l59.555,103.17H178.679l59.555-103.17Zm-5.261,195.648-.451.776H65.268L11.426,103.156,65.268,9.874h.9l12.2,21.159L91.378,8.463H93.1L79.232,32.443l6.545,11.285,20.4-35.265h2.285L86.92,45.83,93.1,56.423l27.591-47.96h3.442L94.749,59.386l5.529,9.592L135.19,8.463h4.57l-37.2,64.478,5.05,8.732L149.846,8.463h5.642l-45.139,78.1,4.4,7.617,49.61-85.721h6.855l-52.925,91.688,4.232,7.349,53.01-91.843,4.57,7.913-53.01,91.857Z"/><text class="b" transform="translate(0 250.822)"><tspan x="0" y="0">BELEZA BE</tspan><tspan class="c" y="0">L</tspan><tspan y="0">A</tspan></text></svg>