<svg xmlns="http://www.w3.org/2000/svg" width="318" height="226.717" viewBox="0 0 318 226.717"><defs><style>.a{fill:#0064aa;}</style></defs><g transform="translate(-944 764)"><g transform="translate(944 -764)"><rect class="a" width="43.086" height="43.086" rx="15.17" transform="translate(43.654 69.222)"/><path class="a" d="M194.753,62.337A62.464,62.464,0,0,0,132.431,0h0A62.464,62.464,0,0,0,70.08,62.337h0v91.1s124.659-13.884,124.673-91.084Z" transform="translate(29.409)"/><path class="a" d="M0,147.873H0a43.5,43.5,0,0,0,43.37,43.384h0a43.5,43.5,0,0,0,43.37-43.37h0V84.5S0,94.168,0,147.873ZM43.37,159.23a4.708,4.708,0,1,1,0,.043Z" transform="translate(0 35.46)"/><path class="a" d="M77.989,148.693a13.87,13.87,0,0,1-5.409-5.167,14.48,14.48,0,0,1-1.959-7.5,14.2,14.2,0,0,1,1.988-7.5,14.055,14.055,0,0,1,5.451-5.21,15.971,15.971,0,0,1,7.751-1.874,16.227,16.227,0,0,1,6.36,1.207,12.862,12.862,0,0,1,4.855,3.535L93.6,129.33a9.937,9.937,0,0,0-7.581-3.322,10.59,10.59,0,0,0-5.224,1.278,9.213,9.213,0,0,0-3.606,3.549,10.874,10.874,0,0,0,0,10.278,9.213,9.213,0,0,0,3.606,3.549,10.591,10.591,0,0,0,5.224,1.278,9.938,9.938,0,0,0,7.581-3.365L97,145.812a13,13,0,0,1-4.884,3.535,16.3,16.3,0,0,1-6.374,1.207,15.829,15.829,0,0,1-7.751-1.86Z" transform="translate(29.635 50.965)"/><path class="a" d="M98.373,148.683a13.955,13.955,0,0,1-5.48-5.167,15.148,15.148,0,0,1,0-14.949,14.2,14.2,0,0,1,5.48-5.224,17.234,17.234,0,0,1,15.616,0,14,14,0,0,1,5.466,5.21,15.133,15.133,0,0,1-.028,14.963,13.856,13.856,0,0,1-5.466,5.2,17.121,17.121,0,0,1-15.616,0Zm12.919-4a9.341,9.341,0,0,0,3.563-3.563,10.818,10.818,0,0,0,0-10.25,9.341,9.341,0,0,0-3.563-3.563,10.832,10.832,0,0,0-10.207,0,9.242,9.242,0,0,0-3.563,3.563,10.7,10.7,0,0,0,0,10.25,9.242,9.242,0,0,0,3.563,3.563A10.832,10.832,0,0,0,111.292,144.68Z" transform="translate(38.154 50.975)"/><path class="a" d="M142.408,150.062v-18.8l-9.327,15.616h-2.342l-9.313-15.3v18.555H116.4V121.74h4.259l11.286,18.824L143,121.768h4.344v28.393Z" transform="translate(48.846 51.087)"/><path class="a" d="M161.706,122.94a9.341,9.341,0,0,1,4.188,3.478,10.633,10.633,0,0,1,0,10.761,9.313,9.313,0,0,1-4.188,3.507,15.73,15.73,0,0,1-6.417,1.207h-6.4v8.191H143.62V121.691h11.669a15.729,15.729,0,0,1,6.417,1.249Zm-1.42,13.047a5.764,5.764,0,0,0,0-8.348,8.021,8.021,0,0,0-5.224-1.42h-6.147v11.258h6.147a8.092,8.092,0,0,0,5.2-1.491Z" transform="translate(60.269 51.066)"/><path class="a" d="M182.643,143.51h-14.2l-2.839,6.573H160.17l12.777-28.393h5.182l12.777,28.393h-5.423Zm-1.732-4.131-5.366-12.393-5.309,12.393Z" transform="translate(67.214 51.066)"/><path class="a" d="M209.589,121.71V150.1H205.33L189.714,130.9V150.1H184.49V121.71h4.33l15.616,19.208V121.71Z" transform="translate(77.42 51.075)"/><path class="a" d="M221,140.074v10.008h-5.267v-9.937L204.59,121.69h5.679l8.3,13.813,8.39-13.813h5.182Z" transform="translate(85.855 51.066)"/></g></g></svg>